<svg width="14" height="14" viewBox="0 0 14 14" fill="none" xmlns="http://www.w3.org/2000/svg">
<path d="M3.97711 10.251C3.76055 10.4675 3.40945 10.4675 3.19289 10.251C2.97633 10.0344 2.97633 9.68331 3.19289 9.46676L5.93765 6.72199L3.19289 3.97723C2.97633 3.76068 2.97633 3.40957 3.19289 3.19301C3.40945 2.97646 3.76055 2.97646 3.97711 3.19301L6.72187 5.93778L9.46664 3.19301C9.68319 2.97646 10.0343 2.97646 10.2509 3.19301C10.4674 3.40957 10.4674 3.76067 10.2509 3.97723L7.50609 6.72199L10.2509 9.46676C10.4674 9.68331 10.4674 10.0344 10.2509 10.251C10.0343 10.4675 9.68319 10.4675 9.46664 10.251L6.72187 7.50621L3.97711 10.251Z" fill="#B0B8C1"/>
</svg>
