<svg width="18" height="18" viewBox="0 0 18 18" fill="none" xmlns="http://www.w3.org/2000/svg">
<path d="M15.75 9.75098C15.75 7.96077 15.0388 6.24388 13.773 4.97801C12.5071 3.71214 10.7902 3.00098 9 3.00098L9 0.750977L6.0825 3.66848L5.9775 3.72098L9 6.75098L9 4.50098C10.3924 4.50098 11.7277 5.0541 12.7123 6.03867C13.6969 7.02323 14.25 8.35859 14.25 9.75098C14.25 11.1434 13.6969 12.4787 12.7123 13.4633C11.7277 14.4479 10.3924 15.001 9 15.001C7.60761 15.001 6.27226 14.4479 5.28769 13.4633C4.30312 12.4787 3.75 11.1434 3.75 9.75098C3.75 8.30348 4.3425 6.99098 5.295 6.04598L4.23 4.98098C3 6.20348 2.25 7.87598 2.25 9.75098C2.25 11.5412 2.96116 13.2581 4.22703 14.5239C5.4929 15.7898 7.20979 16.501 9 16.501C10.7902 16.501 12.5071 15.7898 13.773 14.5239C15.0388 13.2581 15.75 11.5412 15.75 9.75098Z" fill="#777F8A"/>
</svg>
